<?xml version="1.0" standalone="no"?>
<!DOCTYPE svg PUBLIC "-//W3C//DTD SVG 20010904//EN"
 "http://www.w3.org/TR/2001/REC-SVG-20010904/DTD/svg10.dtd">
<svg version="1.0" xmlns="http://www.w3.org/2000/svg"
 width="1024.000000pt" height="1024.000000pt" viewBox="0 0 1024.000000 1024.000000"
 preserveAspectRatio="xMidYMid meet">

<g transform="translate(0.000000,1024.000000) scale(0.100000,-0.100000)"
fill="#000000" stroke="none">
<path d="M5020 9693 c-437 -14 -850 -133 -1160 -335 -124 -81 -193 -136 -308
-251 -391 -386 -637 -941 -741 -1672 -35 -245 -45 -403 -45 -697 l0 -288 -91
0 c-333 -1 -565 -88 -760 -287 -104 -105 -178 -233 -220 -380 l-25 -88 2
-2235 3 -2235 31 -87 c102 -286 324 -492 629 -584 57 -18 183 -19 2753 -21
2971 -4 2748 -8 2917 61 258 105 445 329 511 612 18 76 19 171 19 2279 l0
2200 -26 96 c-85 305 -286 526 -564 618 -111 36 -228 51 -407 51 l-138 0 6
228 c22 766 -127 1473 -414 1975 -413 721 -1070 1067 -1972 1040z m430 -788
c403 -88 687 -317 881 -710 140 -282 226 -631 259 -1054 11 -149 14 -534 4
-630 l-7 -61 -1502 0 -1503 0 -7 98 c-11 137 1 542 19 697 48 390 129 687 261
944 219 428 553 664 1040 735 17 2 131 3 255 1 161 -2 246 -8 300 -20z m-621
-4720 c89 -49 152 -139 166 -237 l7 -48 -109 0 -109 0 -9 32 c-6 17 -23 41
-38 52 -28 21 -40 21 -521 24 -551 3 -558 2 -588 -58 -22 -43 -24 -175 -5
-223 28 -65 -3 -62 591 -67 l541 -5 52 -24 c66 -29 143 -111 169 -176 16 -41
19 -75 19 -195 0 -132 -3 -149 -24 -193 -31 -63 -95 -127 -156 -157 l-50 -25
-570 0 -570 0 -51 27 c-97 51 -174 164 -174 255 l0 33 104 0 c100 0 105 -1
111 -22 4 -13 19 -35 33 -50 l26 -28 522 0 523 0 28 24 c27 23 28 29 31 126 4
110 -6 152 -42 173 -15 9 -164 13 -561 17 -539 5 -540 5 -586 28 -73 36 -125
87 -158 154 -30 60 -31 65 -31 203 0 182 11 218 94 301 98 98 62 93 716 91
l565 -2 54 -30z m1804 -4 c81 -41 168 -129 203 -205 25 -55 48 -161 38 -177
-3 -5 -52 -9 -108 -9 l-104 0 -7 38 c-11 61 -51 119 -103 149 l-47 28 -431 0
-431 0 -49 -30 c-37 -23 -56 -44 -76 -84 l-28 -55 0 -286 0 -286 25 -51 c16
-32 41 -61 67 -79 l41 -29 426 -3 c234 -2 441 0 459 3 37 7 106 64 127 105 7
14 16 42 20 63 l7 37 109 0 c81 0 109 -3 109 -12 -1 -35 -31 -150 -48 -184
-27 -52 -95 -128 -146 -164 -24 -16 -70 -38 -104 -49 -58 -20 -83 -21 -505
-21 -376 0 -452 2 -498 16 -148 43 -270 179 -299 334 -5 29 -10 173 -10 320 0
147 5 291 10 320 29 151 150 290 293 336 33 10 144 13 518 11 l475 -2 67 -34z"/>
</g>
</svg>
